<svg width="101" height="96" viewBox="0 0 101 96" fill="none" xmlns="http://www.w3.org/2000/svg">
<rect x="1" y="0.5" width="99" height="95" rx="8.5" fill="#FFFCF2"/>
<rect x="1" y="0.5" width="99" height="95" rx="8.5" stroke="#EAEAEA"/>
<g clip-path="url(#clip0_574_1381)">
<mask id="mask0_574_1381" style="mask-type:luminance" maskUnits="userSpaceOnUse" x="9" y="9" width="84" height="78">
<path d="M93 9H9V87H93V9Z" fill="white"/>
</mask>
<g mask="url(#mask0_574_1381)">
<path d="M50.7857 9H45.2143C25.2137 9 9 26.4609 9 48C9 69.5391 25.2137 87 45.2143 87H50.7857C70.7863 87 87 69.5391 87 48C87 26.4609 70.7863 9 50.7857 9Z" fill="white"/>
<path d="M47.5 80C65.4493 80 80 65.6731 80 48C80 30.3269 65.4493 16 47.5 16C29.5507 16 15 30.3269 15 48C15 65.6731 29.5507 80 47.5 80Z" fill="#E0E8E2"/>
<path d="M46 24H50C62.7025 24 73 34.9691 73 48.5C73 62.0309 62.7025 73 50 73H46C33.2975 73 23 62.0309 23 48.5C23 34.9691 33.2975 24 46 24Z" fill="#FDF8E5"/>
<path d="M58.0987 67C65.1408 63.5281 70 56.3708 70 48.3759C70 37.1572 60.5026 28 48.5574 28C47.7105 28 46.8614 28.0651 46 28.1442C46.0709 28.3279 46.1405 28.5098 46.2097 28.6902C46.6714 29.8948 47.1066 31.0302 47.6657 32.1725L47.6711 32.1837L47.676 32.1951C48.4132 33.9022 49.3643 35.6166 50.3197 37.1354C51.3867 38.7632 52.4472 40.2791 53.7166 41.7922L53.7216 41.7981L53.7264 41.8042C55.0369 43.4704 56.1263 45.2375 57.1033 47.1007L57.1102 47.1138L57.1163 47.1274C58.8556 50.9626 59.9562 55.1365 59.8476 59.3331C59.8463 61.9123 59.2195 64.6322 58.0987 67Z" fill="#E0E8E2" stroke="#3A643C"/>
<path d="M57.5518 59.4863L57.5505 59.4748C57.2016 55.8794 55.92 52.3645 54.1511 48.9216L54.145 48.9093C53.3348 47.2198 52.2891 45.72 50.9912 44.099C49.6667 42.4447 48.4562 40.6792 47.4851 38.803C46.5229 36.9441 45.6708 34.9629 45.1816 32.9678L45.1794 32.9586L45.1775 32.9494C44.8543 31.3769 44.6273 29.8039 44.4966 28.3037C42.4079 28.6112 40.48 29.2037 38.6289 29.893C39.6863 34.623 41.3528 38.4584 45.9172 43.6534C47.554 45.3729 50.5988 49.1541 52.428 53.8661C54.1708 58.3557 54.8267 63.7423 52.0406 68.979C53.6261 68.7736 55.2067 68.431 56.7106 68.0113C57.6796 65.2044 57.8911 62.3031 57.5518 59.4863Z" fill="#E0E8E2" stroke="#3A643C"/>
<path d="M36.9272 42.0933C36.6891 43.1155 36.6891 43.2177 36.0938 43.4222C37.4032 43.5244 40.3794 43.5244 41.57 42.0933C40.4985 42.2977 38.1176 42.7066 36.9272 42.0933Z" fill="white"/>
<path d="M35.7398 39.64C36.216 39.1289 39.0731 39.1289 40.5017 39.2311C39.4303 38.72 36.9303 38.9245 35.7398 39.0267C35.5017 39.4356 35.1446 40.1511 35.7398 39.64Z" fill="white"/>
<path d="M33.7279 55.5913L33.7369 55.5859L33.746 55.5808C33.7834 55.5603 33.786 55.5469 33.788 55.541C33.7946 55.5223 33.8032 55.4755 33.7904 55.3899C33.7705 55.2563 33.7109 55.1106 33.6518 55.0032C33.0286 54.7073 32.6713 54.2649 32.5859 53.7375C32.5377 53.4407 32.5837 53.1606 32.6743 52.9223C32.5992 52.8339 32.5386 52.7335 32.4933 52.6232C32.3834 52.3555 32.3821 52.0736 32.4191 51.837C32.4565 51.5975 32.5383 51.3692 32.6339 51.1785C32.7195 51.0079 32.83 50.8399 32.9565 50.714C32.9965 50.6566 33.0167 50.5769 32.9709 50.4513C32.9125 50.2912 32.7328 50.0368 32.2869 49.765L32.2807 49.7613L32.2747 49.7574C31.8188 49.4598 31.5415 49.085 31.5133 48.647C31.4866 48.2341 31.6928 47.9207 31.8727 47.7522C32.9412 46.6777 33.5944 45.983 35.7934 43.4022C35.5551 41.5997 35.7585 39.5554 36.108 37.725C36.4604 35.8795 36.969 34.2116 37.362 33.1612C37.3072 32.7363 37.2113 32.322 37.0992 31.8895C37.0656 31.7597 37.03 31.6266 36.9937 31.4907C36.9509 31.3305 36.907 31.1666 36.8642 31C30.3982 34.4528 26 40.9406 26 48.3218C26 59.4408 35.9348 69 48.1485 69H48.6814C48.7197 68.9352 48.7575 68.8664 48.7991 68.7903L48.804 68.7815C48.8598 68.6795 48.9232 68.5636 49 68.4429C48.8384 66.8122 47.813 64.4701 46.4311 62.4975C45.7215 61.4845 44.9373 60.5977 44.163 59.9753C43.3801 59.3461 42.6623 59.0307 42.0704 59.0493C38.3013 59.2518 37.0514 59.2537 35.2398 59.0468C34.1772 58.9254 33.5286 58.2694 33.2732 57.5359C33.149 57.1792 33.1171 56.8012 33.1804 56.4628C33.2427 56.1299 33.4099 55.7851 33.7279 55.5913Z" fill="#E0E8E2" stroke="#147A36"/>
<path d="M36.0938 45.4222C37.4032 45.5244 40.3794 45.5244 41.57 44.0933C40.4985 44.2977 38.1176 44.7066 36.9272 44.0933C36.6891 45.1155 36.6891 45.2177 36.0938 45.4222Z" fill="#6B8E70"/>
<path d="M35.7398 41.64C36.216 41.1289 39.0731 41.1289 40.5017 41.2311C39.4303 40.72 36.9303 40.9245 35.7398 41.0267C35.5017 41.4356 35.1446 42.1511 35.7398 41.64Z" fill="#3A643C"/>
</g>
</g>
<defs>
<clipPath id="clip0_574_1381">
<rect width="84" height="78" fill="white" transform="translate(8.5 9)"/>
</clipPath>
</defs>
</svg>
